<svg width="1600" height="1600" viewBox="0 0 1600 1600" fill="none" xmlns="http://www.w3.org/2000/svg">
<path fill-rule="evenodd" clip-rule="evenodd" d="M587.058 777.295C637.205 777.302 681.844 809.67 727.04 852.681L671.855 910.669C626.906 867.893 602.798 857.347 587.047 857.345C572.566 857.343 551.427 866.523 512.696 908.734L453.713 854.615C493.731 811 535.641 777.287 587.058 777.295ZM1012.95 857.345C997.202 857.347 973.094 867.893 928.145 910.669L872.96 852.681C918.156 809.67 962.795 777.302 1012.94 777.295C1064.36 777.287 1106.27 811.001 1146.29 854.615L1087.3 908.734C1048.57 866.523 1027.43 857.343 1012.95 857.345Z" fill="#E66B00"/>
<path fill-rule="evenodd" clip-rule="evenodd" d="M727.04 852.681C681.844 809.67 637.205 777.302 587.058 777.295C535.641 777.287 493.731 811 453.713 854.615L512.696 908.734C551.427 866.523 572.566 857.343 587.047 857.345C602.798 857.347 626.906 867.893 671.855 910.669L727.04 852.681ZM928.145 910.669C973.094 867.893 997.202 857.347 1012.95 857.345C1027.43 857.343 1048.57 866.523 1087.3 908.734L1146.29 854.615C1106.27 811.001 1064.36 777.287 1012.94 777.295C962.795 777.302 918.156 809.67 872.96 852.681L928.145 910.669Z" fill="#E66B00"/>
<path fill-rule="evenodd" clip-rule="evenodd" d="M1040.1 539.061H559.901L348.019 2.00001L138.691 539.061H0L800 1598.28L1600 539.061H1461.31L1251.98 2L1040.1 539.061ZM159.103 619.111L800 1465L1440.9 619.111H1406.59L1250.15 217.724L1095.5 619.111H504.501L349.853 217.724L193.406 619.111H159.103Z" fill="#E66B00"/>
</svg>
